<svg xmlns="http://www.w3.org/2000/svg" width="320" height="200" viewBox="0 0 320 200" role="img"><title>Presentation illustration: community message. Prepare a message for a group or community.</title><defs><linearGradient id="paper" x1="0" y1="0" x2="1" y2="1"><stop stop-color="#f3f3ee"/><stop offset="1" stop-color="#e2e3dc"/></linearGradient><filter id="shadow" x="-30%" y="-30%" width="160%" height="170%"><feDropShadow dx="0" dy="4" stdDeviation="4" flood-color="#20231b" flood-opacity=".13"/></filter></defs><rect x="0" y="0" width="320" height="200" rx="0" fill="url(#paper)" stroke="none" stroke-width="1"/><g style="filter:grayscale(1)"><circle cx="61" cy="55" r="13" fill="#dedfd9" stroke="none" stroke-width="2"/><circle cx="61" cy="52" r="3.38" fill="#9b9d96" stroke="none" stroke-width="2"/><path d="M53.85 62.15q0 -11.049999999999999 7.15 -11.049999999999999q7.15 0 7.15 11.049999999999999" fill="#9b9d96" stroke="none" stroke-width="2" stroke-linecap="round" stroke-linejoin="round"/><rect x="85" y="37" width="154" height="39" rx="11" fill="#fff" stroke="none" stroke-width="1"/><path d="M99 50H224" stroke="#acaaa5" stroke-width="3" stroke-linecap="round"/><path d="M99 59H184.0" stroke="#acaaa5" stroke-width="3" stroke-linecap="round"/><circle cx="99" cy="108" r="13" fill="#dedfd9" stroke="none" stroke-width="2"/><circle cx="99" cy="105" r="3.38" fill="#9b9d96" stroke="none" stroke-width="2"/><path d="M91.85 115.15q0 -11.049999999999999 7.15 -11.049999999999999q7.15 0 7.15 11.049999999999999" fill="#9b9d96" stroke="none" stroke-width="2" stroke-linecap="round" stroke-linejoin="round"/><rect x="123" y="90" width="149" height="39" rx="11" fill="#e3eadb" stroke="none" stroke-width="1"/><path d="M137 103H257" stroke="#acaaa5" stroke-width="3" stroke-linecap="round"/><path d="M137 112H218.60000000000002" stroke="#acaaa5" stroke-width="3" stroke-linecap="round"/><circle cx="51" cy="156" r="13" fill="#dedfd9" stroke="none" stroke-width="2"/><circle cx="51" cy="153" r="3.38" fill="#9b9d96" stroke="none" stroke-width="2"/><path d="M43.85 163.15q0 -11.049999999999999 7.15 -11.049999999999999q7.15 0 7.15 11.049999999999999" fill="#9b9d96" stroke="none" stroke-width="2" stroke-linecap="round" stroke-linejoin="round"/><rect x="75" y="138" width="150" height="39" rx="11" fill="#fff" stroke="none" stroke-width="1"/><path d="M89 151H210" stroke="#acaaa5" stroke-width="3" stroke-linecap="round"/><path d="M89 160H171.28" stroke="#acaaa5" stroke-width="3" stroke-linecap="round"/></g></svg>