<svg xmlns="http://www.w3.org/2000/svg" width="320" height="200" viewBox="0 0 320 200" role="img"><title>Editorial illustration: personal &amp; lifestyle. Share a thoughtful glimpse of daily life.</title><defs><linearGradient id="paper" x1="0" y1="0" x2="1" y2="1"><stop stop-color="#f3f3ee"/><stop offset="1" stop-color="#e2e3dc"/></linearGradient><filter id="shadow" x="-30%" y="-30%" width="160%" height="170%"><feDropShadow dx="0" dy="4" stdDeviation="4" flood-color="#20231b" flood-opacity=".13"/></filter></defs><rect x="0" y="0" width="320" height="200" rx="0" fill="url(#paper)" stroke="none" stroke-width="1"/><g style="filter:grayscale(1)"><g transform="rotate(-7 160 100)"><g transform="rotate(0 103.5 105.0)" filter="url(#shadow)"><rect x="49" y="39" width="109" height="132" rx="7" fill="#fff" stroke="none" stroke-width="1"/></g><rect x="57" y="47" width="93" height="91" rx="4" fill="#d7d7d0" stroke="none" stroke-width="1"/><circle cx="126.75" cy="70.66" r="8.19" fill="#f8f8f4" stroke="none" stroke-width="2"/><path d="M65 130 L88.62 80.67 L112.8 119.8 L128.61 95.23 L142 130 Z" fill="#a5a7a0" stroke="none" stroke-width="2" stroke-linecap="round" stroke-linejoin="round"/><text x="68" y="154" font-family="Georgia,serif" font-size="9" font-weight="400" fill="#343531" text-anchor="start">a quiet moment</text></g><g transform="rotate(8 160 100)"><g transform="rotate(0 212.5 103.5)" filter="url(#shadow)"><rect x="172" y="44" width="81" height="119" rx="7" fill="#fff" stroke="none" stroke-width="1"/></g><path d="M187 65H236" stroke="#acaaa5" stroke-width="3" stroke-linecap="round"/><path d="M187 75H236" stroke="#acaaa5" stroke-width="3" stroke-linecap="round"/><path d="M187 85H236" stroke="#acaaa5" stroke-width="3" stroke-linecap="round"/><path d="M187 95H236" stroke="#acaaa5" stroke-width="3" stroke-linecap="round"/><path d="M187 105H236" stroke="#acaaa5" stroke-width="3" stroke-linecap="round"/><path d="M187 115H236" stroke="#acaaa5" stroke-width="3" stroke-linecap="round"/><path d="M187 125H220.32" stroke="#acaaa5" stroke-width="3" stroke-linecap="round"/></g><circle cx="250" cy="145" r="21" fill="#c6cbbb" stroke="none" stroke-width="2"/><circle cx="250" cy="145" r="14" fill="#7c856d" stroke="none" stroke-width="2"/><path d="M270 136q23 6 0 19" fill="none" stroke="#abb29d" stroke-width="5" stroke-linecap="round" stroke-linejoin="round"/></g></svg>