<svg xmlns="http://www.w3.org/2000/svg" width="320" height="200" viewBox="0 0 320 200" role="img"><title>Editorial illustration: reaction &amp; reply. Respond thoughtfully to another contribution.</title><defs><linearGradient id="paper" x1="0" y1="0" x2="1" y2="1"><stop stop-color="#f3f3ee"/><stop offset="1" stop-color="#e2e3dc"/></linearGradient><filter id="shadow" x="-30%" y="-30%" width="160%" height="170%"><feDropShadow dx="0" dy="4" stdDeviation="4" flood-color="#20231b" flood-opacity=".13"/></filter></defs><rect x="0" y="0" width="320" height="200" rx="0" fill="url(#paper)" stroke="none" stroke-width="1"/><g style="filter:grayscale(1)"><rect x="46" y="43" width="166" height="60" rx="15" fill="#fff" stroke="none" stroke-width="1"/><circle cx="69" cy="69" r="12" fill="#dedfd9" stroke="none" stroke-width="2"/><circle cx="69" cy="66" r="3.12" fill="#9b9d96" stroke="none" stroke-width="2"/><path d="M62.4 75.6q0 -10.2 6.6000000000000005 -10.2q6.6000000000000005 0 6.6000000000000005 10.2" fill="#9b9d96" stroke="none" stroke-width="2" stroke-linecap="round" stroke-linejoin="round"/><path d="M93 64H187" stroke="#acaaa5" stroke-width="3" stroke-linecap="round"/><path d="M93 73H187" stroke="#acaaa5" stroke-width="3" stroke-linecap="round"/><path d="M93 82H156.92000000000002" stroke="#acaaa5" stroke-width="3" stroke-linecap="round"/><path d="M65 108v35h38m-10-8 10 8-10 8" fill="none" stroke="#8e9b87" stroke-width="2" stroke-linecap="round" stroke-linejoin="round"/><rect x="115" y="120" width="164" height="48" rx="16" fill="#d6ded0" stroke="none" stroke-width="1"/><circle cx="137" cy="143" r="12" fill="#dedfd9" stroke="none" stroke-width="2"/><circle cx="137" cy="140" r="3.12" fill="#9b9d96" stroke="none" stroke-width="2"/><path d="M130.4 149.6q0 -10.2 6.6000000000000005 -10.2q6.6000000000000005 0 6.6000000000000005 10.2" fill="#9b9d96" stroke="none" stroke-width="2" stroke-linecap="round" stroke-linejoin="round"/><path d="M160 139H251" stroke="#acaaa5" stroke-width="3" stroke-linecap="round"/><path d="M160 148H221.88" stroke="#acaaa5" stroke-width="3" stroke-linecap="round"/></g></svg>