<svg xmlns="http://www.w3.org/2000/svg" width="320" height="200" viewBox="0 0 320 200" role="img"><title>Editorial illustration: resource roundup. Curate useful tools, books and references.</title><defs><linearGradient id="paper" x1="0" y1="0" x2="1" y2="1"><stop stop-color="#f3f3ee"/><stop offset="1" stop-color="#e2e3dc"/></linearGradient><filter id="shadow" x="-30%" y="-30%" width="160%" height="170%"><feDropShadow dx="0" dy="4" stdDeviation="4" flood-color="#20231b" flood-opacity=".13"/></filter></defs><rect x="0" y="0" width="320" height="200" rx="0" fill="url(#paper)" stroke="none" stroke-width="1"/><g style="filter:grayscale(1)"><g transform="rotate(-11 80.5 98.5)" filter="url(#shadow)"><rect x="43" y="49" width="75" height="99" rx="7" fill="#fff" stroke="none" stroke-width="1"/></g><rect x="43" y="49" width="8" height="99" rx="3" fill="#75796a" stroke="none" stroke-width="1"/><circle cx="85" cy="80" r="15" fill="#e1e3d9" stroke="none" stroke-width="2"/><path d="M79 80l5 5 9-10" fill="none" stroke="#363735" stroke-width="2" stroke-linecap="round" stroke-linejoin="round"/><path d="M66 111H105" stroke="#acaaa5" stroke-width="3" stroke-linecap="round"/><path d="M66 120H105" stroke="#acaaa5" stroke-width="3" stroke-linecap="round"/><path d="M66 129H92.52000000000001" stroke="#acaaa5" stroke-width="3" stroke-linecap="round"/><g transform="rotate(-2 158.5 78.5)" filter="url(#shadow)"><rect x="121" y="29" width="75" height="99" rx="7" fill="#fff" stroke="none" stroke-width="1"/></g><rect x="121" y="29" width="8" height="99" rx="3" fill="#75796a" stroke="none" stroke-width="1"/><circle cx="163" cy="60" r="15" fill="#e1e3d9" stroke="none" stroke-width="2"/><path d="M157 60l5 5 9-10" fill="none" stroke="#363735" stroke-width="2" stroke-linecap="round" stroke-linejoin="round"/><path d="M144 91H183" stroke="#acaaa5" stroke-width="3" stroke-linecap="round"/><path d="M144 100H183" stroke="#acaaa5" stroke-width="3" stroke-linecap="round"/><path d="M144 109H170.52" stroke="#acaaa5" stroke-width="3" stroke-linecap="round"/><g transform="rotate(9 237.5 102.5)" filter="url(#shadow)"><rect x="200" y="53" width="75" height="99" rx="7" fill="#fff" stroke="none" stroke-width="1"/></g><rect x="200" y="53" width="8" height="99" rx="3" fill="#75796a" stroke="none" stroke-width="1"/><circle cx="242" cy="84" r="15" fill="#e1e3d9" stroke="none" stroke-width="2"/><path d="M236 84l5 5 9-10" fill="none" stroke="#363735" stroke-width="2" stroke-linecap="round" stroke-linejoin="round"/><path d="M223 115H262" stroke="#acaaa5" stroke-width="3" stroke-linecap="round"/><path d="M223 124H262" stroke="#acaaa5" stroke-width="3" stroke-linecap="round"/><path d="M223 133H249.52" stroke="#acaaa5" stroke-width="3" stroke-linecap="round"/></g></svg>